#!OML:ASF F:\VICON\USERDATA\INSTALL\rory3\rory3.ASF
:FULLY-SPECIFIED
:DEGREES
71
root -0.8538088791677565 17.341924648951206 4.324996477157858 3.7657165607668883 -2.944061966789822 -1.5676871683967075
lfemur -5.856987313714388 2.8079590302459847 -22.40874216313495
ltibia 51.243869746886254
lfoot 3.168671520693461 -8.621084371403724
ltoes -11.950797817725139
rfemur -32.73462781941579 2.635273142086888 27.49555991852303
rtibia 98.8768348162031
rfoot 0.32916500039027774 -7.984915218193802
rtoes 8.276983719932641
lowerback 15.480415634274973 0.5947819947899526 -0.17577410233050794
upperback -0.37816146341537 0.8027865428571797 0.7361886941270194
thorax -9.600176582641614 0.4327570785077229 0.8997646364957786
lowerneck -21.721092331946817 -3.567430276733912 -1.9763175803611288
upperneck 10.674956221130543 -4.803661501801749 3.526265116946303
head 7.1791937037055575 -2.011466944965467 0.8037387165465723
lclavicle 1.1245391003398528e-15 -1.4766016290060982e-15
lhumerus -49.68368309010474 -13.765236620025396 98.74153570784156
lradius 110.66006078017958
lwrist 31.74937562847603
lhand -30.879708341684076 0.8595169973995838
lfingers 7.125019999999998
lthumb -4.283396292849291 30.333782428257482
rclavicle 1.1245391004124602e-15 -1.4766016289572125e-15
rhumerus -53.877461357762236 10.530912890246071 -101.94317839380655
rradius 116.92963984387112
rwrist -13.728855890916044
rhand -18.8300768605022 37.56862799192735
rfingers 7.125019999999998
rthumb 5.763279905342406 8.470459335935242
72
root -0.8503302712802375 17.369827047457843 4.667971905087229 3.85284287462241 -3.0999598135018465 -1.7405230693938352
lfemur -5.5776167591040835 2.7245706112949453 -22.0030354157178
ltibia 51.969613022468685
lfoot 5.226702949725846 -9.268789396251023
ltoes -10.91687078758516
rfemur -32.29425850241184 2.9601217251422005 27.945197650138006
rtibia 96.53276882772192
rfoot 0.23220183953867846 -8.030573085472577
rtoes 7.9292438028424925
lowerback 15.416421207534784 0.5694010459237101 0.00945762410436668
upperback -0.4488446511933301 0.8128931913922841 0.9183208485399816
thorax -9.647667533237117 0.4426162948708606 0.9620356796907352
lowerneck -21.539614287516255 -3.481945958852083 -1.961259912353864
upperneck 10.89727528658765 -4.66627042484369 3.367165460357977
head 7.227748586637839 -1.9611469500429537 0.760999778357322
lclavicle 1.1245391003391967e-15 -1.4766016290063937e-15
lhumerus -50.616957509208895 -13.563827063847683 98.74146517995804
lradius 109.9312314043764
lwrist 31.988812370028704
lhand -30.515549376590062 0.8348892354812716
lfingers 7.125019999999998
lthumb -3.972295689568535 30.3855552936512
rclavicle 1.124539100415179e-15 -1.4766016289550398e-15
rhumerus -54.175383439282534 10.426937564457482 -101.76934412657387
rradius 117.25517038331557
rwrist -13.738090025234461
rhand -18.827739518500437 37.99806487605591
rfingers 7.125019999999998
rthumb 5.8062889985111115 9.14274160800046
73
root -0.8683204567730282 17.401932199108888 4.7873511709113235 3.9754339387735147 -3.3963481414541157 -1.9857289135630742
lfemur -5.485534038437207 2.7116707356141116 -21.483807341870897
ltibia 52.90681298602409
lfoot 6.75089771743541 -10.499403441214922
ltoes -11.367539725458059
rfemur -31.726005157997704 3.5314628804891792 28.495390306060496
rtibia 94.08419086079718
rfoot 0.25731018094251734 -8.13396509490682
rtoes 6.607079386474105
lowerback 15.46344541865518 0.5820693706502778 0.20728464852013384
upperback -0.5505263683139621 0.8979719713901735 1.1912362724752636
thorax -9.855204598490982 0.4784014284521892 1.0008229022560708
lowerneck -21.194736979628967 -3.415054653744387 -1.9788123734934433
upperneck 11.13830832296514 -4.546344551480718 3.226456525245952
head 7.255168496290731 -1.91943747594909 0.7323918919770342
lclavicle 1.1245391003359235e-15 -1.476601629008571e-15
lhumerus -51.54617891252229 -13.414503054580305 98.75634496658623
lradius 109.29943154020569
lwrist 32.48921532251253
lhand -30.292413245494302 0.711742255056479
lfingers 7.125019999999998
lthumb -3.7483976701888855 30.25058244341343
rclavicle 1.124539100415471e-15 -1.4766016289545833e-15
rhumerus -54.491163343292186 10.317134623495472 -101.57728144683406
rradius 117.60133962937647
rwrist -14.184454404413692
rhand -18.81509184925801 38.516286733935544
rfingers 7.125019999999998
rthumb 5.814591998203312 9.7356336223784
74
root -0.8717891654327518 17.451735440526125 5.240388970478456 4.0913827381765815 -3.6840902615997893 -2.194549221731943
lfemur -5.465775338473566 2.6940264938215464 -21.032225014064892
ltibia 54.0741440551467
lfoot 9.470084573209741 -11.425114998049262
ltoes -9.287204599600877
rfemur -30.877255260614735 3.974252238761947 29.004608281743405
rtibia 91.5377757135841
rfoot 0.38948635502257556 -8.187370863967894
rtoes 4.816198587685722
lowerback 15.402418736272512 0.596399411815444 0.430133794821433
upperback -0.6105358659061376 0.9657372435558593 1.4102278814080473
thorax -9.89932387701526 0.5168353821438318 1.029749561516524
lowerneck -20.998788489642543 -3.3552117271703925 -2.0142512787488127
upperneck 11.52070639543108 -4.439419095372223 3.096403518191658
head 7.352187595817252 -1.8764618687245411 0.7080390110606887
lclavicle 1.1245391003335772e-15 -1.4766016290100767e-15
lhumerus -52.483477444031095 -13.220959865539239 98.75890684530414
lradius 108.84572871673382
lwrist 32.97648283887988
lhand -30.02576138062229 0.5403453509268041
lfingers 7.125019999999998
lthumb -3.7263621443161457 29.953986936468105
rclavicle 1.1245391004148048e-15 -1.4766016289548373e-15
rhumerus -54.821243923957326 10.195641715251421 -101.38200239621625
rradius 117.96625733609916
rwrist -14.089372024336893
rhand -18.865100043918364 38.88350799598029
rfingers 7.125019999999998
rthumb 5.843631420229844 10.363843334139773
75
root -0.8731586646526939 17.499100260514933 5.574661929437507 4.189616906689838 -3.9934997096855422 -2.390606306744007
lfemur -5.577052061812022 2.692374894903595 -20.599550457034198
ltibia 55.4419309958239
lfoot 11.5377765595149 -12.307801138508355
ltoes -8.937810861025769
rfemur -29.94575430734917 4.39689082307126 29.476668058379396
rtibia 89.00976012988771
rfoot 0.1943657185289429 -8.325780598556427
rtoes 3.0514833600612334
lowerback 15.328158047790842 0.6209187985685009 0.6378057505073799
upperback -0.6491921051161977 1.0430108947786538 1.5951505364568932
thorax -9.864611882501768 0.5588805890206192 1.0422895053936723
lowerneck -20.864841749676625 -3.3112855230102864 -2.01624813474304
upperneck 11.987614483539756 -4.364010788220545 2.9494991688537486
head 7.479008342078069 -1.8559573120142288 0.6745288877647876
lclavicle 1.1245391003303033e-15 -1.4766016290122433e-15
lhumerus -53.15618267252735 -13.131242946640247 98.69936155635027
lradius 108.41518845181513
lwrist 33.151060361719054
lhand -29.86701680181882 0.2580095346501139
lfingers 7.125019999999998
lthumb -3.478976902664085 29.920547526829758
rclavicle 1.1245391004162349e-15 -1.476601628953556e-15
rhumerus -55.19241025771352 10.056347440944002 -101.18407480956502
rradius 118.35418029957165
rwrist -14.487266809235786
rhand -18.922607322193727 39.29419480983147
rfingers 7.125019999999998
rthumb 5.841482756682478 10.900106889588805
76
root -0.8694957590302972 17.535422744997927 6.09167756585717 4.264172987353966 -4.272841078658183 -2.5168464967336197
lfemur -5.8299084999241035 2.6898235861164963 -20.26752349310025
ltibia 57.00595681237825
lfoot 12.58050401095031 -13.287449964030074
ltoes -11.283082906315313
rfemur -29.00311264491682 4.758927803542975 29.789104850450634
rtibia 86.61589939272045
rfoot 0.02843726720068096 -8.443984576184715
rtoes 3.0509034335000575
lowerback 15.235289899575642 0.6460325420296529 0.7931812441219204
upperback -0.7106457466051908 1.1210563792946164 1.749076843827538
thorax -9.85568361517533 0.5969887070815523 1.027095131342598
lowerneck -20.632567184572174 -3.277277357622805 -2.019683666077033
upperneck 12.443530367034327 -4.30375403090488 2.8042070971566044
head 7.594423089705933 -1.840816105318419 0.6439173974256651
lclavicle 1.1245391003269204e-15 -1.4766016290143975e-15
lhumerus -53.90035228362632 -13.022482950925555 98.6870074093565
lradius 108.08781507174615
lwrist 33.257575727047445
lhand -29.59280859240639 0.18536145239815738
lfingers 7.125019999999998
lthumb -3.213687696103724 29.959234443968928
rclavicle 1.1245391004132776e-15 -1.4766016289553717e-15
rhumerus -55.54657903018068 9.948019344972822 -100.96671725838459
rradius 118.7428177648885
rwrist -14.526220011407933
rhand -19.030753192640013 39.69919614272864
rfingers 7.125019999999998
rthumb 5.811551929099912 11.313920830580757
77
root -0.852303994633048 17.579499473748477 6.740883857724788 4.311154714389316 -4.421489760800363 -2.590743473272156
lfemur -6.146322770487901 2.6314359166431203 -20.044602453282618
ltibia 58.77145880056484
lfoot 13.811704402182533 -13.93215856008609
ltoes -13.944007717369338
rfemur -27.91895969507815 4.900441727638051 30.058277528092113
rtibia 84.27846732287061
rfoot -0.02324920755253901 -8.456121753815228
rtoes 1.868805022429295
lowerback 15.078291906731982 0.6530806769335714 0.95461481239719
upperback -0.7524303739568405 1.1561630094293824 1.842754520556099
thorax -9.717761286359371 0.6129329623211448 0.9779151399555834
lowerneck -20.51761991440851 -3.269183774890297 -2.014371739824178
upperneck 12.910978981947956 -4.282762329488232 2.662085773134149
head 7.731230820109877 -1.8449717993612542 0.6096753291097232
lclavicle 1.1245391003217179e-15 -1.4766016290179807e-15
lhumerus -54.44807828393544 -12.896561466666123 98.65038250878841
lradius 107.79747673149903
lwrist 33.057895527691954
lhand -29.24899678464493 0.2115208206215652
lfingers 7.125019999999998
lthumb -2.912611585405802 30.036404739679746
rclavicle 1.1245391004108183e-15 -1.4766016289569088e-15
rhumerus -55.88302528488809 9.847878204766015 -100.73710450442968
rradius 119.13019586698638
rwrist -14.871876044155965
rhand -19.095547557477715 40.23511888115107
rfingers 7.125019999999998
rthumb 5.756139252134595 11.64817410339152
